# xmcd
#
# Track frame offsets:
#	150
#	24383
#	53512
#
# Disc length: 896 seconds
#
# Revision: 1
# Processed by: cddbd v1.5.2PL0 Copyright (c) Steve Scherf et al.
# Submitted via: audiograbber 1.83.01
#
DISCID=17037e03
DTITLE=Sidney Samson - Riverside - Data Records Promo
DYEAR=2009
DGENRE=Dance
TTITLE0=Riverside (Original Mix)
TTITLE1=Riverside (Rene Amez Remix)
TTITLE2=Riverside (Clean Edit)
EXTD=
EXTT0=
EXTT1=
EXTT2=
PLAYORDER=
